<?xml version="1.0" encoding="UTF-8"?>
<svg width="358px" height="297px" viewBox="0 0 358 297" version="1.1" xmlns="http://www.w3.org/2000/svg" xmlns:xlink="http://www.w3.org/1999/xlink">
    <title>飞机</title>
    <g id="飞机" stroke="none" stroke-width="1" fill="none" fill-rule="evenodd" stroke-linecap="round" stroke-linejoin="round">
        <g id="编组-5" transform="translate(41.000000, 89.000000)" stroke="#DC7551">
            <path d="M204.617519,74.1605876 C202.027744,71.9151664 239.6946,93.758209 244.996832,105.849325 C250.297383,117.938767 232.8664,120 232.8664,120 L156,89.2154589" id="路径" fill="#F37D66"></path>
            <path d="M217.82137,66 C214.459867,66.3644821 206.841021,71.7459527 203.691293,73.169247 C198.111198,75.6942337 188.510746,75.7470093 185.268577,81.0592119 C182.024726,86.3697652 185.905581,88.675403 186.924117,89.3581884 C191.56131,92.4604091 228,83.3087755 228,83.3087755" id="路径" fill="#F9DED6"></path>
            <path d="M224.964557,66.2942886 C227.503061,68.0820783 228.74911,69.4781612 229.928131,72.9298673 C231.677756,78.0538599 231.724161,84.2357953 226.693558,83.9930711 C220.29316,83.6850624 212.851236,69.3810715 219.777553,65.7753609 C221.632019,64.8094858 222.427772,64.5048251 224.964557,66.2942886 Z" id="路径" fill="#D89D8A"></path>
            <path d="M51.8051073,92.9884287 C51.2091956,93.4253491 46.9984288,81.3512204 46.6456765,80.1211213 C44.0325695,70.9962057 36.5751114,58.5876648 48.8238365,54.845273 C50.0773059,54.4638079 54.1510815,54 54.1510815,54 C54.1510815,54 54.9079578,63.9298575 56.0552591,65.3380858 C64.6908414,75.9350873 86.6351181,77.9348386 91,75.8359399" id="路径" fill="#F37D66"></path>
            <polyline id="路径" fill="#F9DED6" points="56.8450462 103 69 115.988973 64.7995262 120 33 103.493145"></polyline>
            <path d="M33.4505972,104 C33.4505972,104 133.844469,104.391704 203.39,74.0187906 C277.736069,41.5492709 286.061266,18.2149397 267.739435,6.1237224 C249.417604,-5.96766385 219.713851,0.424028423 188.488468,20.213051 C157.263085,40.0017357 84.4117144,78.8049995 84.4117144,78.8049995 L47.3304153,94.3715822 L15.212927,81.6415843 L0,83.4138162 L33.4505972,104 Z" id="路径" fill="#F9DED6"></path>
            <path d="M48,94 C48,94 196.59303,38.9807874 256.20233,15.8496935 C272.880162,9.378363 275.812732,17.5222387 274.831287,15.3119521 C268.342663,0.696410676 246.06522,-4.61012058 220.236764,4.47953663 C194.408308,13.5693614 55.5977911,90.536268 48,94 Z" id="路径" fill="#F37D66"></path>
            <path d="M264.741085,5.00299619 C262.540754,3.5716361 258.546638,2 258.546638,2 C257.323679,2.29927819 251.983811,2.39988878 246.404992,3.9024083 C239.060599,5.88040222 231.112193,9.17688851 231.112193,9.17688851 C231.112193,9.17688851 229.856046,11.7970197 230.013687,13.7527125 C230.172987,15.7085754 231.747733,17 231.747733,17 C231.747733,17 239.98653,13.7353482 248.592048,11.6557223 C257.381757,9.53183448 266.720719,8.35429907 269.858597,8.49100009 C270.70156,8.52760123 267.620101,6.87561286 264.741085,5.00299619 Z" id="路径" fill="#FFFFFF"></path>
            <path d="M214.363369,15.2410692 C212.207487,23.9975255 220.147642,23.0126524 224.939396,19.1919105 C225.279456,18.9206921 224.094941,17.2695329 223.706069,15.3313657 C223.366009,13.6404037 223.873658,11.6412165 223.37089,11.3079912 C221.410257,10.0065048 214.885662,13.1193486 214.363369,15.2410692 Z" id="路径" fill="#FFFFFF"></path>
            <path d="M208.467481,17.2628794 C209.280429,18.477906 208.439618,20.0716933 209.934393,23.8221486 C210.755536,25.8810029 203.640603,28.6817615 201.334519,28.9793123 C198.097479,29.3952259 198.990738,23.4192221 199.561113,21.9132204 C200.551073,19.292965 207.654533,16.0478529 208.467481,17.2628794 Z" id="路径" fill="#FFFFFF"></path>
            <path d="M17,17.0303657 C16.9563435,8.05313701 38.1473577,8.50960913 43.3152005,7.00924182 C45.5720326,6.35448699 152.219961,40.7070089 152,41.0782617 C151.496833,41.9304554 110.712413,66.8043888 107.833354,66.9950777 C102.677284,67.3393302 63.8789431,49.536074 48.3619613,42.0283312 C42.8039658,39.3384363 17.0421099,26.0075943 17,17.0303657 Z" id="路径" fill="#F37D66"></path>
            <path d="M171.242254,20 C171.242254,20 138.287999,37.6023428 134.277004,40.9073308 C130.1258,44.3286331 122.876631,48.4793923 121.174087,54.8500932 C119.756968,60.1540257 127.29824,63.9209476 132.669602,62.8026686 C149.878657,59.2218496 182,46.5452515 182,46.5452515" id="路径" fill="#F9DED6"></path>
            <path d="M176.060699,19.1917736 C160.038719,16.087416 170.651149,51.7758367 184.058772,46.4588113 C194.715981,42.2342084 186.308015,21.1772516 176.060699,19.1917736 Z" id="路径" fill="#D89D8A"></path>
        </g>
    </g>
</svg>