<?xml version="1.0" standalone="no"?><!DOCTYPE svg PUBLIC "-//W3C//DTD SVG 1.1//EN" "http://www.w3.org/Graphics/SVG/1.1/DTD/svg11.dtd"><svg class="icon" width="400px" height="400.00px" viewBox="0 0 1024 1024" version="1.1" xmlns="http://www.w3.org/2000/svg"><path fill="#ffffff" d="M874.666667 896H576c-12.8 0-21.333333-8.533333-21.333333-21.333333V576c0-12.8 8.533333-21.333333 21.333333-21.333333h298.666667c12.8 0 21.333333 8.533333 21.333333 21.333333v298.666667c0 12.8-8.533333 21.333333-21.333333 21.333333z m-277.333334-42.666667h256V597.333333H597.333333v256zM490.666667 896c-181.333333 0-277.333333-96-277.333334-277.333333 0-12.8 8.533333-21.333333 21.333334-21.333334s21.333333 8.533333 21.333333 21.333334c0 157.866667 76.8 234.666667 234.666667 234.666666 12.8 0 21.333333 8.533333 21.333333 21.333334s-8.533333 21.333333-21.333333 21.333333zM320 725.333333c-6.4 0-10.666667-2.133333-14.933333-6.4l-85.333334-85.333333c-8.533333-8.533333-8.533333-21.333333 0-29.866667s21.333333-8.533333 29.866667 0l85.333333 85.333334c8.533333 8.533333 8.533333 21.333333 0 29.866666-4.266667 4.266667-8.533333 6.4-14.933333 6.4zM149.333333 725.333333c-6.4 0-10.666667-2.133333-14.933333-6.4-8.533333-8.533333-8.533333-21.333333 0-29.866666l85.333333-85.333334c8.533333-8.533333 21.333333-8.533333 29.866667 0s8.533333 21.333333 0 29.866667l-85.333333 85.333333c-4.266667 4.266667-8.533333 6.4-14.933334 6.4zM789.333333 426.666667c-12.8 0-21.333333-8.533333-21.333333-21.333334 0-157.866667-76.8-234.666667-234.666667-234.666666-12.8 0-21.333333-8.533333-21.333333-21.333334s8.533333-21.333333 21.333333-21.333333c181.333333 0 277.333333 96 277.333334 277.333333 0 12.8-8.533333 21.333333-21.333334 21.333334zM789.333333 426.666667c-6.4 0-10.666667-2.133333-14.933333-6.4l-85.333333-85.333334c-8.533333-8.533333-8.533333-21.333333 0-29.866666s21.333333-8.533333 29.866666 0l85.333334 85.333333c8.533333 8.533333 8.533333 21.333333 0 29.866667-4.266667 4.266667-8.533333 6.4-14.933334 6.4zM789.333333 426.666667c-6.4 0-10.666667-2.133333-14.933333-6.4-8.533333-8.533333-8.533333-21.333333 0-29.866667l85.333333-85.333333c8.533333-8.533333 21.333333-8.533333 29.866667 0s8.533333 21.333333 0 29.866666l-85.333333 85.333334c-4.266667 4.266667-8.533333 6.4-14.933334 6.4zM298.666667 469.333333c-93.866667 0-170.666667-76.8-170.666667-170.666666s76.8-170.666667 170.666667-170.666667 170.666667 76.8 170.666666 170.666667-76.8 170.666667-170.666666 170.666666z m0-298.666666c-70.4 0-128 57.6-128 128s57.6 128 128 128 128-57.6 128-128-57.6-128-128-128z" /></svg>